<svg width="49" height="48" viewBox="0 0 49 48" fill="none" xmlns="http://www.w3.org/2000/svg">
    <rect x="1" y="0.5" width="47" height="47" rx="23.5" stroke="#EEEEEE" />
    <path opacity="0.4"
        d="M25.6865 15.84H15.3132C13.0332 15.84 11.1665 17.7066 11.1665 19.9866V35.1333C11.1665 37.0666 12.5532 37.8933 14.2465 36.9466L19.4865 34.0266C20.0465 33.7199 20.9532 33.7199 21.4998 34.0266L26.7398 36.9466C28.4332 37.8933 29.8198 37.0666 29.8198 35.1333V19.9866C29.8332 17.7066 27.9665 15.84 25.6865 15.84Z"
        fill="#3BBB6E" />
    <path
        d="M37.8332 14.8133V29.96C37.8332 31.8933 36.4465 32.7066 34.7532 31.7733L29.8332 29.0266V19.9866C29.8332 17.7066 27.9665 15.84 25.6865 15.84H19.1665V14.8133C19.1665 12.5333 21.0332 10.6666 23.3132 10.6666H33.6865C35.9665 10.6666 37.8332 12.5333 37.8332 14.8133Z"
        fill="#3BBB6E" />
</svg>